<svg xmlns="http://www.w3.org/2000/svg" width="1440" height="900" viewBox="0 0 1440 900">
<rect x="0" y="0" width="1440" height="900" fill="#f7f8fb"/>
<rect x="0" y="0" width="1440" height="64" fill="#111827"/>
<text x="24" y="40" fill="#ffffff" font-size="22" font-family="Arial">Ovia — Dashboard</text>
<rect x="0" y="64" width="240" height="836" fill="#1f2937"/>
<text x="24" y="120" fill="#d1d5db" font-size="18" font-family="Arial">Dashboard</text>
<text x="24" y="162" fill="#d1d5db" font-size="18" font-family="Arial">Team</text>
<text x="24" y="204" fill="#d1d5db" font-size="18" font-family="Arial">Ask Ovia</text>
<text x="24" y="246" fill="#d1d5db" font-size="18" font-family="Arial">Reports</text>
<text x="24" y="288" fill="#d1d5db" font-size="18" font-family="Arial">Settings</text>
<rect x="264" y="88" width="1152" height="788" rx="10" fill="#ffffff" stroke="#d1d5db"/>
<rect x="292" y="112" width="540" height="96" rx="8" fill="#f9fafb" stroke="#cbd5e1"/>
<text x="306" y="140" fill="#111827" font-size="18" font-family="Arial">KPIs: Health / Risk / Throughput / Review latency</text>
<rect x="852" y="112" width="536" height="96" rx="8" fill="#f9fafb" stroke="#cbd5e1"/>
<text x="866" y="140" fill="#111827" font-size="18" font-family="Arial">Filters: date, product, export</text>
<rect x="292" y="228" width="540" height="250" rx="8" fill="#f9fafb" stroke="#cbd5e1"/>
<text x="306" y="256" fill="#111827" font-size="18" font-family="Arial">Trend charts</text>
<rect x="852" y="228" width="536" height="250" rx="8" fill="#f9fafb" stroke="#cbd5e1"/>
<text x="866" y="256" fill="#111827" font-size="18" font-family="Arial">Blockers + stale MRs</text>
<rect x="292" y="498" width="1096" height="350" rx="8" fill="#f9fafb" stroke="#cbd5e1"/>
<text x="306" y="526" fill="#111827" font-size="18" font-family="Arial">Narrative insights + citations</text>
</svg>